<mxfile host="app.diagrams.net" agent="Mozilla/5.0 (Windows NT 10.0; Win64; x64) AppleWebKit/537.36 (KHTML, like Gecko) Chrome/134.0.0.0 Safari/537.36" version="25.0.3">
  <diagram name="Page-1" id="f7vcRPwsbpzKCCicOem-">
    <mxGraphModel dx="2120" dy="1467" grid="1" gridSize="10" guides="1" tooltips="1" connect="1" arrows="1" fold="1" page="1" pageScale="1" pageWidth="850" pageHeight="1100" math="0" shadow="0">
      <root>
        <mxCell id="0" />
        <mxCell id="1" parent="0" />
        <mxCell id="DB7BiPDZvfRoe6xFMaz--55" value="" style="rounded=0;whiteSpace=wrap;html=1;" vertex="1" parent="1">
          <mxGeometry x="195" width="1325" height="1100" as="geometry" />
        </mxCell>
        <mxCell id="DB7BiPDZvfRoe6xFMaz--9" style="edgeStyle=orthogonalEdgeStyle;rounded=0;orthogonalLoop=1;jettySize=auto;html=1;exitX=0;exitY=0.5;exitDx=0;exitDy=0;entryX=1;entryY=0.5;entryDx=0;entryDy=0;endArrow=none;endFill=0;" edge="1" parent="1" source="DB7BiPDZvfRoe6xFMaz--1" target="DB7BiPDZvfRoe6xFMaz--7">
          <mxGeometry relative="1" as="geometry" />
        </mxCell>
        <mxCell id="DB7BiPDZvfRoe6xFMaz--21" style="rounded=0;orthogonalLoop=1;jettySize=auto;html=1;exitX=0.091;exitY=0.041;exitDx=0;exitDy=0;entryX=0.072;entryY=0.709;entryDx=0;entryDy=0;endArrow=none;endFill=0;exitPerimeter=0;entryPerimeter=0;" edge="1" parent="1" source="DB7BiPDZvfRoe6xFMaz--1" target="DB7BiPDZvfRoe6xFMaz--15">
          <mxGeometry relative="1" as="geometry" />
        </mxCell>
        <mxCell id="DB7BiPDZvfRoe6xFMaz--22" style="rounded=0;orthogonalLoop=1;jettySize=auto;html=1;exitX=0.25;exitY=0;exitDx=0;exitDy=0;entryX=0.214;entryY=0.918;entryDx=0;entryDy=0;endArrow=none;endFill=0;entryPerimeter=0;" edge="1" parent="1" source="DB7BiPDZvfRoe6xFMaz--1" target="DB7BiPDZvfRoe6xFMaz--13">
          <mxGeometry relative="1" as="geometry" />
        </mxCell>
        <mxCell id="DB7BiPDZvfRoe6xFMaz--23" style="rounded=0;orthogonalLoop=1;jettySize=auto;html=1;exitX=0.75;exitY=0;exitDx=0;exitDy=0;entryX=0;entryY=0.5;entryDx=0;entryDy=0;endArrow=none;endFill=0;" edge="1" parent="1" source="DB7BiPDZvfRoe6xFMaz--1" target="DB7BiPDZvfRoe6xFMaz--17">
          <mxGeometry relative="1" as="geometry" />
        </mxCell>
        <mxCell id="DB7BiPDZvfRoe6xFMaz--24" style="rounded=0;orthogonalLoop=1;jettySize=auto;html=1;exitX=0.97;exitY=0.606;exitDx=0;exitDy=0;endArrow=none;endFill=0;exitPerimeter=0;" edge="1" parent="1">
          <mxGeometry relative="1" as="geometry">
            <mxPoint x="1197.4" y="634.36" as="sourcePoint" />
            <mxPoint x="1280.1662677914408" y="636.1772865928698" as="targetPoint" />
          </mxGeometry>
        </mxCell>
        <mxCell id="DB7BiPDZvfRoe6xFMaz--25" style="rounded=0;orthogonalLoop=1;jettySize=auto;html=1;exitX=0.75;exitY=1;exitDx=0;exitDy=0;entryX=0;entryY=0;entryDx=0;entryDy=0;endArrow=none;endFill=0;" edge="1" parent="1" source="DB7BiPDZvfRoe6xFMaz--1" target="DB7BiPDZvfRoe6xFMaz--18">
          <mxGeometry relative="1" as="geometry" />
        </mxCell>
        <mxCell id="DB7BiPDZvfRoe6xFMaz--27" style="rounded=0;orthogonalLoop=1;jettySize=auto;html=1;entryX=0;entryY=0;entryDx=0;entryDy=0;endArrow=none;endFill=0;" edge="1" parent="1" target="DB7BiPDZvfRoe6xFMaz--20">
          <mxGeometry relative="1" as="geometry">
            <mxPoint x="1091" y="661" as="sourcePoint" />
            <mxPoint x="1081.76" y="813.9799999999996" as="targetPoint" />
          </mxGeometry>
        </mxCell>
        <mxCell id="DB7BiPDZvfRoe6xFMaz--30" style="rounded=0;orthogonalLoop=1;jettySize=auto;html=1;exitX=0;exitY=0;exitDx=0;exitDy=0;entryX=1;entryY=1;entryDx=0;entryDy=0;endArrow=none;endFill=0;" edge="1" parent="1" source="DB7BiPDZvfRoe6xFMaz--1" target="DB7BiPDZvfRoe6xFMaz--29">
          <mxGeometry relative="1" as="geometry" />
        </mxCell>
        <mxCell id="DB7BiPDZvfRoe6xFMaz--1" value="&lt;font style=&quot;font-size: 15px;&quot;&gt;Marks&lt;/font&gt;" style="rounded=0;whiteSpace=wrap;html=1;" vertex="1" parent="1">
          <mxGeometry x="1081" y="600" width="120" height="60" as="geometry" />
        </mxCell>
        <mxCell id="DB7BiPDZvfRoe6xFMaz--8" style="rounded=0;orthogonalLoop=1;jettySize=auto;html=1;exitX=1;exitY=0.5;exitDx=0;exitDy=0;entryX=0;entryY=0.5;entryDx=0;entryDy=0;endArrow=none;endFill=0;" edge="1" parent="1" source="DB7BiPDZvfRoe6xFMaz--2" target="DB7BiPDZvfRoe6xFMaz--7">
          <mxGeometry relative="1" as="geometry" />
        </mxCell>
        <mxCell id="DB7BiPDZvfRoe6xFMaz--10" style="rounded=0;orthogonalLoop=1;jettySize=auto;html=1;endArrow=none;endFill=0;entryX=0.5;entryY=0;entryDx=0;entryDy=0;exitX=0.25;exitY=1;exitDx=0;exitDy=0;" edge="1" parent="1">
          <mxGeometry relative="1" as="geometry">
            <mxPoint x="750" y="658" as="sourcePoint" />
            <mxPoint x="605" y="681" as="targetPoint" />
            <Array as="points" />
          </mxGeometry>
        </mxCell>
        <mxCell id="DB7BiPDZvfRoe6xFMaz--11" style="rounded=0;orthogonalLoop=1;jettySize=auto;html=1;exitX=0;exitY=0.5;exitDx=0;exitDy=0;entryX=0.992;entryY=0.567;entryDx=0;entryDy=0;endArrow=none;endFill=0;entryPerimeter=0;" edge="1" parent="1" target="DB7BiPDZvfRoe6xFMaz--4">
          <mxGeometry relative="1" as="geometry">
            <mxPoint x="720" y="629" as="sourcePoint" />
            <mxPoint x="660" y="634" as="targetPoint" />
          </mxGeometry>
        </mxCell>
        <mxCell id="DB7BiPDZvfRoe6xFMaz--43" value="" style="edgeStyle=orthogonalEdgeStyle;rounded=0;orthogonalLoop=1;jettySize=auto;html=1;endArrow=none;endFill=0;" edge="1" parent="1" source="DB7BiPDZvfRoe6xFMaz--2" target="DB7BiPDZvfRoe6xFMaz--42">
          <mxGeometry relative="1" as="geometry" />
        </mxCell>
        <mxCell id="DB7BiPDZvfRoe6xFMaz--2" value="&lt;font style=&quot;font-size: 15px;&quot;&gt;Student&lt;/font&gt;" style="rounded=0;whiteSpace=wrap;html=1;" vertex="1" parent="1">
          <mxGeometry x="720" y="598" width="120" height="60" as="geometry" />
        </mxCell>
        <mxCell id="DB7BiPDZvfRoe6xFMaz--3" value="&lt;font style=&quot;font-size: 15px;&quot;&gt;Standard&lt;/font&gt;" style="ellipse;whiteSpace=wrap;html=1;" vertex="1" parent="1">
          <mxGeometry x="490" y="679" width="230" height="70" as="geometry" />
        </mxCell>
        <mxCell id="DB7BiPDZvfRoe6xFMaz--4" value="&lt;u&gt;&lt;font style=&quot;font-size: 15px;&quot;&gt;EmailID&lt;/font&gt;&lt;/u&gt;" style="ellipse;whiteSpace=wrap;html=1;" vertex="1" parent="1">
          <mxGeometry x="430" y="590" width="230" height="70" as="geometry" />
        </mxCell>
        <mxCell id="DB7BiPDZvfRoe6xFMaz--5" value="&lt;font style=&quot;font-size: 15px;&quot;&gt;Student name&lt;/font&gt;" style="ellipse;whiteSpace=wrap;html=1;" vertex="1" parent="1">
          <mxGeometry x="510" y="511" width="230" height="70" as="geometry" />
        </mxCell>
        <mxCell id="DB7BiPDZvfRoe6xFMaz--7" value="enters" style="rhombus;whiteSpace=wrap;html=1;" vertex="1" parent="1">
          <mxGeometry x="920" y="590" width="80" height="80" as="geometry" />
        </mxCell>
        <mxCell id="DB7BiPDZvfRoe6xFMaz--12" style="rounded=0;orthogonalLoop=1;jettySize=auto;html=1;exitX=0.25;exitY=0;exitDx=0;exitDy=0;entryX=0.558;entryY=1.001;entryDx=0;entryDy=0;entryPerimeter=0;endArrow=none;endFill=0;" edge="1" parent="1" source="DB7BiPDZvfRoe6xFMaz--2" target="DB7BiPDZvfRoe6xFMaz--5">
          <mxGeometry relative="1" as="geometry" />
        </mxCell>
        <mxCell id="DB7BiPDZvfRoe6xFMaz--13" value="English" style="ellipse;whiteSpace=wrap;html=1;" vertex="1" parent="1">
          <mxGeometry x="1120" y="481" width="180" height="60" as="geometry" />
        </mxCell>
        <mxCell id="DB7BiPDZvfRoe6xFMaz--15" value="Maths" style="ellipse;whiteSpace=wrap;html=1;" vertex="1" parent="1">
          <mxGeometry x="1088" y="412" width="180" height="60" as="geometry" />
        </mxCell>
        <mxCell id="DB7BiPDZvfRoe6xFMaz--16" value="Biology&lt;span style=&quot;color: rgba(0, 0, 0, 0); font-family: monospace; font-size: 0px; text-align: start; text-wrap-mode: nowrap;&quot;&gt;%3CmxGraphModel%3E%3Croot%3E%3CmxCell%20id%3D%220%22%2F%3E%3CmxCell%20id%3D%221%22%20parent%3D%220%22%2F%3E%3CmxCell%20id%3D%222%22%20value%3D%22English%22%20style%3D%22ellipse%3BwhiteSpace%3Dwrap%3Bhtml%3D1%3B%22%20vertex%3D%221%22%20parent%3D%221%22%3E%3CmxGeometry%20x%3D%22480%22%20y%3D%2260%22%20width%3D%22180%22%20height%3D%2260%22%20as%3D%22geometry%22%2F%3E%3C%2FmxCell%3E%3C%2Froot%3E%3C%2FmxGraphModel%3E&lt;/span&gt;" style="ellipse;whiteSpace=wrap;html=1;" vertex="1" parent="1">
          <mxGeometry x="1280" y="608" width="180" height="60" as="geometry" />
        </mxCell>
        <mxCell id="DB7BiPDZvfRoe6xFMaz--17" value="Physics" style="ellipse;whiteSpace=wrap;html=1;" vertex="1" parent="1">
          <mxGeometry x="1230" y="538" width="180" height="60" as="geometry" />
        </mxCell>
        <mxCell id="DB7BiPDZvfRoe6xFMaz--18" value="Chemistry" style="ellipse;whiteSpace=wrap;html=1;" vertex="1" parent="1">
          <mxGeometry x="1220" y="670" width="180" height="60" as="geometry" />
        </mxCell>
        <mxCell id="DB7BiPDZvfRoe6xFMaz--19" value="History" style="ellipse;whiteSpace=wrap;html=1;" vertex="1" parent="1">
          <mxGeometry x="1120" y="730" width="180" height="60" as="geometry" />
        </mxCell>
        <mxCell id="DB7BiPDZvfRoe6xFMaz--20" value="Geography" style="ellipse;whiteSpace=wrap;html=1;" vertex="1" parent="1">
          <mxGeometry x="1093" y="796" width="180" height="60" as="geometry" />
        </mxCell>
        <mxCell id="DB7BiPDZvfRoe6xFMaz--26" style="rounded=0;orthogonalLoop=1;jettySize=auto;html=1;entryX=0.363;entryY=0.022;entryDx=0;entryDy=0;entryPerimeter=0;endArrow=none;endFill=0;" edge="1" parent="1" target="DB7BiPDZvfRoe6xFMaz--19">
          <mxGeometry relative="1" as="geometry">
            <mxPoint x="1110" y="661" as="sourcePoint" />
          </mxGeometry>
        </mxCell>
        <mxCell id="DB7BiPDZvfRoe6xFMaz--37" style="rounded=0;orthogonalLoop=1;jettySize=auto;html=1;exitX=0.5;exitY=0;exitDx=0;exitDy=0;entryX=0.5;entryY=1;entryDx=0;entryDy=0;endArrow=none;endFill=0;" edge="1" parent="1" source="DB7BiPDZvfRoe6xFMaz--28" target="DB7BiPDZvfRoe6xFMaz--35">
          <mxGeometry relative="1" as="geometry" />
        </mxCell>
        <mxCell id="DB7BiPDZvfRoe6xFMaz--38" style="rounded=0;orthogonalLoop=1;jettySize=auto;html=1;exitX=0.75;exitY=0;exitDx=0;exitDy=0;entryX=0.333;entryY=0.994;entryDx=0;entryDy=0;endArrow=none;endFill=0;entryPerimeter=0;" edge="1" parent="1">
          <mxGeometry relative="1" as="geometry">
            <mxPoint x="701" y="281" as="sourcePoint" />
            <mxPoint x="832.9100000000001" y="257.46000000000004" as="targetPoint" />
          </mxGeometry>
        </mxCell>
        <mxCell id="DB7BiPDZvfRoe6xFMaz--39" style="rounded=0;orthogonalLoop=1;jettySize=auto;html=1;exitX=1;exitY=0.5;exitDx=0;exitDy=0;entryX=0;entryY=0.5;entryDx=0;entryDy=0;endArrow=none;endFill=0;" edge="1" parent="1" source="DB7BiPDZvfRoe6xFMaz--28" target="DB7BiPDZvfRoe6xFMaz--36">
          <mxGeometry relative="1" as="geometry" />
        </mxCell>
        <mxCell id="DB7BiPDZvfRoe6xFMaz--40" style="rounded=0;orthogonalLoop=1;jettySize=auto;html=1;exitX=0.25;exitY=0;exitDx=0;exitDy=0;entryX=0.5;entryY=1;entryDx=0;entryDy=0;endArrow=none;endFill=0;" edge="1" parent="1" source="DB7BiPDZvfRoe6xFMaz--28" target="DB7BiPDZvfRoe6xFMaz--34">
          <mxGeometry relative="1" as="geometry" />
        </mxCell>
        <mxCell id="DB7BiPDZvfRoe6xFMaz--41" style="rounded=0;orthogonalLoop=1;jettySize=auto;html=1;exitX=0;exitY=0.5;exitDx=0;exitDy=0;entryX=1;entryY=0.5;entryDx=0;entryDy=0;endArrow=none;endFill=0;" edge="1" parent="1" source="DB7BiPDZvfRoe6xFMaz--28" target="DB7BiPDZvfRoe6xFMaz--33">
          <mxGeometry relative="1" as="geometry" />
        </mxCell>
        <mxCell id="DB7BiPDZvfRoe6xFMaz--28" value="&lt;font style=&quot;font-size: 15px;&quot;&gt;Career&lt;/font&gt;" style="rounded=0;whiteSpace=wrap;html=1;" vertex="1" parent="1">
          <mxGeometry x="607" y="281" width="120" height="60" as="geometry" />
        </mxCell>
        <mxCell id="DB7BiPDZvfRoe6xFMaz--31" style="rounded=0;orthogonalLoop=1;jettySize=auto;html=1;exitX=0;exitY=0;exitDx=0;exitDy=0;entryX=1;entryY=1;entryDx=0;entryDy=0;endArrow=none;endFill=0;" edge="1" parent="1" source="DB7BiPDZvfRoe6xFMaz--29" target="DB7BiPDZvfRoe6xFMaz--28">
          <mxGeometry relative="1" as="geometry" />
        </mxCell>
        <mxCell id="DB7BiPDZvfRoe6xFMaz--29" value="helps in predicting" style="rhombus;whiteSpace=wrap;html=1;" vertex="1" parent="1">
          <mxGeometry x="870" y="456" width="80" height="80" as="geometry" />
        </mxCell>
        <mxCell id="DB7BiPDZvfRoe6xFMaz--32" value="&lt;font style=&quot;font-size: 15px;&quot;&gt;Career option 4 with probability&lt;/font&gt;" style="ellipse;whiteSpace=wrap;html=1;" vertex="1" parent="1">
          <mxGeometry x="739" y="168" width="270" height="90" as="geometry" />
        </mxCell>
        <mxCell id="DB7BiPDZvfRoe6xFMaz--33" value="&lt;font style=&quot;font-size: 15px;&quot;&gt;Career option 1 with probability&lt;/font&gt;" style="ellipse;whiteSpace=wrap;html=1;" vertex="1" parent="1">
          <mxGeometry x="280" y="266" width="270" height="90" as="geometry" />
        </mxCell>
        <mxCell id="DB7BiPDZvfRoe6xFMaz--34" value="&lt;font style=&quot;font-size: 15px;&quot;&gt;Career option 2 with probability&lt;/font&gt;" style="ellipse;whiteSpace=wrap;html=1;" vertex="1" parent="1">
          <mxGeometry x="342" y="166" width="270" height="90" as="geometry" />
        </mxCell>
        <mxCell id="DB7BiPDZvfRoe6xFMaz--35" value="&lt;font style=&quot;font-size: 15px;&quot;&gt;Career option 3 with probability&lt;/font&gt;" style="ellipse;whiteSpace=wrap;html=1;" vertex="1" parent="1">
          <mxGeometry x="532" y="86" width="270" height="90" as="geometry" />
        </mxCell>
        <mxCell id="DB7BiPDZvfRoe6xFMaz--36" value="&lt;font style=&quot;font-size: 15px;&quot;&gt;Career option 5 with probability&lt;/font&gt;" style="ellipse;whiteSpace=wrap;html=1;" vertex="1" parent="1">
          <mxGeometry x="787" y="266" width="270" height="90" as="geometry" />
        </mxCell>
        <mxCell id="DB7BiPDZvfRoe6xFMaz--45" value="" style="rounded=0;orthogonalLoop=1;jettySize=auto;html=1;endArrow=none;endFill=0;" edge="1" parent="1" source="DB7BiPDZvfRoe6xFMaz--42" target="DB7BiPDZvfRoe6xFMaz--44">
          <mxGeometry relative="1" as="geometry" />
        </mxCell>
        <mxCell id="DB7BiPDZvfRoe6xFMaz--42" value="gives" style="rhombus;whiteSpace=wrap;html=1;rounded=0;" vertex="1" parent="1">
          <mxGeometry x="740" y="730" width="80" height="80" as="geometry" />
        </mxCell>
        <mxCell id="DB7BiPDZvfRoe6xFMaz--47" value="" style="rounded=0;orthogonalLoop=1;jettySize=auto;html=1;endArrow=none;endFill=0;entryX=0.5;entryY=0;entryDx=0;entryDy=0;" edge="1" parent="1" target="DB7BiPDZvfRoe6xFMaz--46">
          <mxGeometry relative="1" as="geometry">
            <mxPoint x="724" y="924.9473684210525" as="sourcePoint" />
            <mxPoint x="556" y="950" as="targetPoint" />
          </mxGeometry>
        </mxCell>
        <mxCell id="DB7BiPDZvfRoe6xFMaz--50" style="rounded=0;orthogonalLoop=1;jettySize=auto;html=1;exitX=0.5;exitY=1;exitDx=0;exitDy=0;entryX=0.5;entryY=0;entryDx=0;entryDy=0;endArrow=none;endFill=0;" edge="1" parent="1" source="DB7BiPDZvfRoe6xFMaz--44" target="DB7BiPDZvfRoe6xFMaz--48">
          <mxGeometry relative="1" as="geometry" />
        </mxCell>
        <mxCell id="DB7BiPDZvfRoe6xFMaz--51" style="rounded=0;orthogonalLoop=1;jettySize=auto;html=1;exitX=1;exitY=0.5;exitDx=0;exitDy=0;entryX=0.55;entryY=0.004;entryDx=0;entryDy=0;endArrow=none;endFill=0;entryPerimeter=0;" edge="1" parent="1" source="DB7BiPDZvfRoe6xFMaz--44" target="DB7BiPDZvfRoe6xFMaz--49">
          <mxGeometry relative="1" as="geometry" />
        </mxCell>
        <mxCell id="DB7BiPDZvfRoe6xFMaz--44" value="&lt;font style=&quot;font-size: 15px;&quot;&gt;Feedback&lt;/font&gt;" style="whiteSpace=wrap;html=1;rounded=0;" vertex="1" parent="1">
          <mxGeometry x="724" y="896" width="120" height="60" as="geometry" />
        </mxCell>
        <mxCell id="DB7BiPDZvfRoe6xFMaz--46" value="&lt;font style=&quot;font-size: 15px;&quot;&gt;&lt;u&gt;feedbackID&lt;/u&gt;&lt;/font&gt;" style="ellipse;whiteSpace=wrap;html=1;rounded=0;" vertex="1" parent="1">
          <mxGeometry x="431" y="960" width="250" height="80" as="geometry" />
        </mxCell>
        <mxCell id="DB7BiPDZvfRoe6xFMaz--48" value="&lt;font style=&quot;font-size: 15px;&quot;&gt;userName&lt;/font&gt;" style="ellipse;whiteSpace=wrap;html=1;rounded=0;" vertex="1" parent="1">
          <mxGeometry x="659" y="1006" width="250" height="80" as="geometry" />
        </mxCell>
        <mxCell id="DB7BiPDZvfRoe6xFMaz--49" value="&lt;font style=&quot;font-size: 15px;&quot;&gt;comment&lt;/font&gt;" style="ellipse;whiteSpace=wrap;html=1;rounded=0;" vertex="1" parent="1">
          <mxGeometry x="879" y="952" width="250" height="80" as="geometry" />
        </mxCell>
        <mxCell id="DB7BiPDZvfRoe6xFMaz--53" value="&lt;font face=&quot;Lucida Console&quot; style=&quot;font-size: 30px;&quot;&gt;&lt;b style=&quot;&quot;&gt;&lt;i style=&quot;&quot;&gt;ER Diagram for career recommendation system&lt;/i&gt;&lt;/b&gt;&lt;/font&gt;" style="rounded=0;whiteSpace=wrap;html=1;" vertex="1" parent="1">
          <mxGeometry x="360" width="980" height="60" as="geometry" />
        </mxCell>
      </root>
    </mxGraphModel>
  </diagram>
</mxfile>
